<svg xmlns="http://www.w3.org/2000/svg" width="240" height="32" viewBox="0 0 240 32">
    <defs>
        <linearGradient id="prefix__a" x1="50.083%" x2="50.083%" y1="89.297%" y2="10.559%">
            <stop offset="0%" stop-color="#002D74"/>
            <stop offset="100%" stop-color="#002D74" stop-opacity="0"/>
        </linearGradient>
        <linearGradient id="prefix__b" x1="49.833%" x2="49.833%" y1="89.197%" y2="10.515%">
            <stop offset="0%" stop-color="#002D74" stop-opacity="0"/>
            <stop offset="100%" stop-color="#002D74"/>
        </linearGradient>
    </defs>
    <g fill="none" fill-rule="evenodd">
        <path fill="#002D74" fill-rule="nonzero" d="M39.927 21.832c-1.57.02-3.082-.586-4.19-1.68-1.108-1.096-1.719-2.586-1.693-4.131-.023-1.554.59-3.052 1.7-4.156 1.11-1.105 2.626-1.724 4.204-1.718 1.737-.075 3.411.639 4.543 1.937l-1.585 1.738c-.724-.89-1.82-1.41-2.979-1.414-.921.035-1.79.435-2.407 1.11-.617.674-.93 1.566-.87 2.472-.06.932.269 1.848.912 2.534.643.687 1.544 1.084 2.493 1.099 1.14-.033 2.213-.543 2.947-1.403l1.574 1.518c-1.133 1.373-2.852 2.148-4.649 2.094zM49.523 21.832h-2.606V10.188h2.606v2.744c.566-1.698 2.208-2.818 4.022-2.744v2.723h-.15c-2.286 0-3.882 1.455-3.882 4.43l.01 4.491zM67.205 10.168L61.439 24.995 58.8 24.995 60.056 21.864 55.119 10.168 57.896 10.168 61.269 18.806 64.503 10.168zM75.493 21.832c-1.54.018-2.988-.72-3.862-1.968v5.11h-2.596V10.168h2.596v2.094c.833-1.303 2.287-2.094 3.85-2.094 2.692 0 5.32 2.094 5.32 5.832s-2.596 5.832-5.308 5.832zm-.596-9.424c-.92.04-1.786.444-2.4 1.12-.615.676-.927 1.567-.866 2.472-.067.917.249 1.822.876 2.504.626.682 1.509 1.082 2.443 1.109.93-.022 1.808-.424 2.423-1.11.616-.685.914-1.592.822-2.503.08-.915-.23-1.82-.856-2.502-.625-.68-1.51-1.076-2.442-1.09zM86.525 12.607v5.498c-.061.38.065.768.34 1.042.275.275.666.405 1.054.35h1.063v2.335h-1.83c-1.904 0-3.191-.837-3.191-3.287v-5.938h-1.5v-2.199h1.447V7.33h2.617v3.078h2.415v2.2h-2.415zM97.164 21.832c-1.591.04-3.13-.555-4.268-1.65-1.138-1.094-1.779-2.595-1.775-4.161 0-1.578.644-3.09 1.79-4.195 1.144-1.105 2.692-1.71 4.295-1.68 3.279.012 5.927 2.638 5.915 5.864-.011 3.227-2.679 5.834-5.957 5.822zm0-9.424c-.948-.005-1.855.378-2.505 1.057-.65.68-.983 1.594-.921 2.525-.05.94.293 1.858.947 2.544.655.686 1.565 1.079 2.521 1.089.953.008 1.865-.375 2.52-1.056.653-.682.99-1.6.927-2.536.044-.94-.304-1.858-.962-2.541-.658-.684-1.57-1.074-2.527-1.082zM128.207 21.832c-1.59.04-3.127-.555-4.264-1.65-1.136-1.095-1.774-2.596-1.768-4.161-.065-2.43 1.374-4.656 3.638-5.628 2.264-.972 4.901-.495 6.666 1.206 1.765 1.7 2.306 4.284 1.367 6.533-.938 2.249-3.169 3.712-5.639 3.7zm0-9.424c-.942.007-1.84.396-2.48 1.076-.64.68-.967 1.59-.903 2.516-.049.94.293 1.858.948 2.544.654.686 1.565 1.08 2.52 1.09.953.007 1.866-.375 2.52-1.057.653-.681.99-1.6.928-2.535.046-.95-.305-1.877-.973-2.564-.668-.687-1.593-1.074-2.56-1.07zM149.804 10.168c2.468 0 3.979 1.55 3.979 4.282v7.382h-2.606v-6.596c0-1.78-.84-2.733-2.31-2.733-1.467 0-2.425.973-2.425 2.774v6.555h-2.606v-6.617c0-1.739-.873-2.712-2.309-2.712-1.436 0-2.436 1.047-2.436 2.806v6.523h-2.564V10.168h2.606v1.937c.736-1.195 2.05-1.929 3.469-1.937 1.428-.066 2.759.712 3.383 1.979.865-1.238 2.293-1.978 3.82-1.98zM108.047 19.508v1.277c.005.054-.025.104-.074.126l-1.139.65c-.044.03-.104.03-.149 0l-1.138-.65c-.046-.026-.074-.074-.074-.126v-1.277c.002-.054.03-.104.074-.136l1.192-.68c.047-.022.101-.022.148 0l1.139.648c.04.047.048.113.021.168zM115.984 21.832c-1.568-.013-3.064-.648-4.15-1.762-1.085-1.114-1.668-2.611-1.617-4.154.006-1.556.647-3.044 1.78-4.13 1.133-1.085 2.661-1.676 4.242-1.64 1.737-.035 3.397.709 4.51 2.022l-1.648 1.685c-.709-.886-1.78-1.415-2.926-1.445-.92.022-1.794.407-2.425 1.068-.63.662-.963 1.545-.926 2.45-.076.932.237 1.853.868 2.551.631.698 1.524 1.112 2.472 1.146 1.143-.013 2.226-.504 2.98-1.35l1.542 1.56c-1.166 1.35-2.904 2.089-4.702 2z"/>
        <path fill="#FFF" fill-rule="nonzero" d="M12.798.586L.032 7.916v14.492l12.766 7.267 12.767-7.267V7.864L12.798.586zm0 0L.032 7.916v14.492l12.766 7.267 12.767-7.267V7.864L12.798.586z"/>
        <path fill="#002D74" fill-rule="nonzero" d="M12.798.586L.032 7.916v14.492l12.766 7.267 12.767-7.267V7.864L12.798.586zm-5 6.294h10.064l1.224 5.047H6.575L7.798 6.88zm4.043 15.13l-2.128 2H7.798l-4.617-7.884 3.372-2.461 2.98 1.885v3.35l2.255 2.095.053 1.015zm-1.532-3.319l.34-3.141-1.063-2.827h6.521l-1.064 2.827.32 3.141h-5.054zm7.522 5.299h-1.81l-2.127-1.97v-1.046l2.256-2.094v-3.33l2.947-1.896 3.361 2.493-4.627 7.843z"/>
        <path fill="url(#prefix__a)" fill-rule="nonzero" d="M12.798.586V6.87h5.011l1.224 5.047h-6.235v.765h3.267L15 15.508l.319 3.141h-2.522v10.995l12.767-7.267V7.864L12.798.586zm5.033 23.393h-1.81l-2.127-1.969v-1.047l2.256-2.094v-3.32l2.947-1.895 3.361 2.493-4.627 7.832z"/>
        <path fill="url(#prefix__b)" fill-rule="nonzero" d="M10.309 18.691l.34-3.141-1.063-2.827h3.212v-.765H6.575L7.798 6.88h5V.597L.032 7.927v14.481l12.766 7.267V18.691h-2.49zm1.479 3.33l-2.128 2H7.798l-4.617-7.895 3.372-2.461 2.98 1.885v3.35l2.255 2.095v1.026z" style="mix-blend-mode:multiply"/>
        <g>
            <g fill="#B6B8BA">
                <path d="M6.426 12.953c-3.511 0-6.117-2.67-6.117-6.042V6.88C.309 3.54 2.862.806 6.532.806c2.245 0 3.596.744 4.703 1.812l-1.67 1.895c-.926-.827-1.863-1.33-3.054-1.33-2.01 0-3.458 1.644-3.458 3.655v.031c0 2.01 1.415 3.686 3.458 3.686 1.362 0 2.202-.534 3.138-1.372l1.67 1.665c-1.223 1.299-2.595 2.105-4.893 2.105M22.597 12.754L22.597 8.031 17.756 8.031 17.756 12.754 15.128 12.754 15.128 1.005 17.756 1.005 17.756 5.654 22.597 5.654 22.597 1.005 25.214 1.005 25.214 12.754zM34.555 4.031l-1.586 3.812h3.17L34.556 4.03zm1.244-3.11l5.118 11.822h-2.745l-1.096-2.628h-5.043l-1.096 2.628h-2.67L33.384.921H35.8zM44.353 1.005H46.981V12.742999999999999H44.353z" transform="translate(163.964) translate(10.82 9.005)"/>
                <path fill-rule="nonzero" d="M60.503 12.754L54.726 5.288 54.726 12.754 52.13 12.754 52.13 1.005 54.555 1.005 60.141 8.241 60.141 1.005 62.737 1.005 62.737 12.754z" transform="translate(163.964) translate(10.82 9.005)"/>
                <path d="M6.426 12.953c-3.511 0-6.117-2.67-6.117-6.042V6.88C.309 3.54 2.862.806 6.532.806c2.245 0 3.596.744 4.703 1.812l-1.67 1.895c-.926-.827-1.863-1.33-3.054-1.33-2.01 0-3.458 1.644-3.458 3.655v.031c0 2.01 1.415 3.686 3.458 3.686 1.362 0 2.202-.534 3.138-1.372l1.67 1.665c-1.223 1.299-2.595 2.105-4.893 2.105M22.597 12.754L22.597 8.031 17.756 8.031 17.756 12.754 15.128 12.754 15.128 1.005 17.756 1.005 17.756 5.654 22.597 5.654 22.597 1.005 25.214 1.005 25.214 12.754zM34.555 4.031l-1.586 3.812h3.17L34.556 4.03zm1.244-3.11l5.118 11.822h-2.745l-1.096-2.628h-5.043l-1.096 2.628h-2.67L33.384.921H35.8z" transform="translate(163.964) translate(10.82 9.005)"/>
            </g>
            <path stroke="#B6B8BA" stroke-width=".55" d="M0.532 0L0.532 30.545" transform="translate(163.964)"/>
        </g>
    </g>
</svg>
